<svg width="96" height="96" viewBox="0 0 96 96" fill="none" xmlns="http://www.w3.org/2000/svg">
  <defs>
    <linearGradient id="g" x1="16" y1="12" x2="82" y2="86" gradientUnits="userSpaceOnUse">
      <stop stop-color="#38D5E8"/>
      <stop offset=".46" stop-color="#6366F1"/>
      <stop offset="1" stop-color="#A855F7"/>
    </linearGradient>
    <radialGradient id="r" cx="0" cy="0" r="1" gradientUnits="userSpaceOnUse" gradientTransform="translate(45 36) rotate(62) scale(55 58)">
      <stop stop-color="#FFFFFF" stop-opacity=".36"/>
      <stop offset=".55" stop-color="#FFFFFF" stop-opacity=".08"/>
      <stop offset="1" stop-color="#FFFFFF" stop-opacity="0"/>
    </radialGradient>
    <filter id="shadow" x="3" y="3" width="90" height="92" filterUnits="userSpaceOnUse" color-interpolation-filters="sRGB">
      <feDropShadow dx="0" dy="14" stdDeviation="12" flood-color="#312E81" flood-opacity=".28"/>
    </filter>
  </defs>
  <g filter="url(#shadow)">
    <path d="M48 7.5c17.8 0 32.7 7 39.2 18.8 2.8 5.1 2.8 13.1 2.8 21.7s0 16.6-2.8 21.7C80.7 81.5 65.8 88.5 48 88.5s-32.7-7-39.2-18.8C6 64.6 6 56.6 6 48s0-16.6 2.8-21.7C15.3 14.5 30.2 7.5 48 7.5Z" fill="url(#g)"/>
    <path d="M48 7.5c17.8 0 32.7 7 39.2 18.8 2.8 5.1 2.8 13.1 2.8 21.7s0 16.6-2.8 21.7C80.7 81.5 65.8 88.5 48 88.5s-32.7-7-39.2-18.8C6 64.6 6 56.6 6 48s0-16.6 2.8-21.7C15.3 14.5 30.2 7.5 48 7.5Z" fill="url(#r)"/>
  </g>
  <path d="M25 60.5V29.8c0-2.7 2.2-4.8 4.8-4.8h15.9c5.6 0 10.1 4.5 10.1 10.1v35H35.6C29.7 70.1 25 65.4 25 60.5Z" fill="#F8FAFC" fill-opacity=".94"/>
  <path d="M72 60.5V29.8c0-2.7-2.2-4.8-4.8-4.8H51.3c-5.6 0-10.1 4.5-10.1 10.1v35h20.2c5.9 0 10.6-4.7 10.6-9.6Z" fill="#E0F2FE" fill-opacity=".94"/>
  <path d="M48.5 34.5v35.6" stroke="#4F46E5" stroke-width="3" stroke-linecap="round"/>
  <path d="M33 38h10M33 46h9M57 38h9M57 46h7" stroke="#334155" stroke-width="3" stroke-linecap="round"/>
  <path d="M48.2 17.5l2.8 8.3 8.4 2.8-8.4 2.8-2.8 8.3-2.8-8.3-8.4-2.8 8.4-2.8 2.8-8.3Z" fill="#F8FAFC"/>
  <path d="M70.8 50.5l1.6 4.7 4.7 1.6-4.7 1.6-1.6 4.7-1.6-4.7-4.7-1.6 4.7-1.6 1.6-4.7Z" fill="#CFFAFE"/>
</svg>
